<svg width="12" height="21" viewBox="0 0 12 21" fill="none" xmlns="http://www.w3.org/2000/svg">
<path fill-rule="evenodd" clip-rule="evenodd" d="M4.48769 2.30527C5.47225 1.3207 6.80761 0.767578 8.2 0.767578H10.9C11.3142 0.767578 11.65 1.10336 11.65 1.51758V5.11758C11.65 5.53179 11.3142 5.86758 10.9 5.86758H8.2C8.16022 5.86758 8.12206 5.88338 8.09393 5.91151C8.0658 5.93964 8.05 5.9778 8.05 6.01758V7.96758H10.9C11.131 7.96758 11.349 8.07398 11.4912 8.25602C11.6333 8.43806 11.6836 8.67542 11.6276 8.89948L10.7276 12.4995C10.6441 12.8334 10.3442 13.0676 10 13.0676H8.05V19.5176C8.05 19.9318 7.71421 20.2676 7.3 20.2676H3.7C3.28579 20.2676 2.95 19.9318 2.95 19.5176V13.0676H1C0.585786 13.0676 0.25 12.7318 0.25 12.3176V8.71758C0.25 8.30336 0.585786 7.96758 1 7.96758H2.95V6.01758C2.95 4.62519 3.50312 3.28983 4.48769 2.30527ZM8.2 2.26758C7.20544 2.26758 6.25161 2.66267 5.54835 3.36593C4.84509 4.06919 4.45 5.02302 4.45 6.01758V8.71758C4.45 9.13179 4.11421 9.46758 3.7 9.46758H1.75V11.5676H3.7C4.11421 11.5676 4.45 11.9034 4.45 12.3176V18.7676H6.55V12.3176C6.55 11.9034 6.88579 11.5676 7.3 11.5676H9.41442L9.93942 9.46758H7.3C6.88579 9.46758 6.55 9.13179 6.55 8.71758V6.01758C6.55 5.57997 6.72384 5.16029 7.03327 4.85085C7.34271 4.54142 7.76239 4.36758 8.2 4.36758H10.15V2.26758H8.2Z" fill="white"/>
</svg>
