<svg width="20" height="19" viewBox="0 0 20 19" fill="none" xmlns="http://www.w3.org/2000/svg">
<path d="M13.9999 4.51762C13.9999 3.96534 14.4477 3.51762 14.9999 3.51762C15.5522 3.51762 15.9999 3.96534 15.9999 4.51762C15.9999 5.06991 15.5522 5.51762 14.9999 5.51762C14.4477 5.51762 13.9999 5.06991 13.9999 4.51762Z" fill="white"/>
<path fill-rule="evenodd" clip-rule="evenodd" d="M9.99994 4.76762C7.37659 4.76762 5.24994 6.89427 5.24994 9.51762C5.24994 12.141 7.37659 14.2676 9.99994 14.2676C12.6233 14.2676 14.7499 12.141 14.7499 9.51762C14.7499 6.89427 12.6233 4.76762 9.99994 4.76762ZM6.74994 9.51762C6.74994 7.7227 8.20501 6.26762 9.99994 6.26762C11.7949 6.26762 13.2499 7.7227 13.2499 9.51762C13.2499 11.3125 11.7949 12.7676 9.99994 12.7676C8.20501 12.7676 6.74994 11.3125 6.74994 9.51762Z" fill="white"/>
<path fill-rule="evenodd" clip-rule="evenodd" d="M15.2582 0.350639C11.7916 -0.0368016 8.20828 -0.0368016 4.74171 0.350639C2.72965 0.575516 1.10532 2.16053 0.868765 4.18305C0.454227 7.72735 0.454227 11.3079 0.868765 14.8522C1.10532 16.8747 2.72965 18.4597 4.74171 18.6846C8.20828 19.072 11.7916 19.072 15.2582 18.6846C17.2702 18.4597 18.8946 16.8747 19.1311 14.8522C19.5457 11.3079 19.5457 7.72735 19.1311 4.18305C18.8946 2.16053 17.2703 0.575516 15.2582 0.350639ZM4.90832 1.84136C8.26416 1.46629 11.7357 1.46629 15.0916 1.84136C16.4217 1.99002 17.4872 3.03963 17.6413 4.35731C18.0423 7.78583 18.0423 11.2494 17.6413 14.6779C17.4872 15.9956 16.4217 17.0452 15.0916 17.1939C11.7357 17.569 8.26417 17.569 4.90832 17.1939C3.57821 17.0452 2.51272 15.9956 2.35861 14.6779C1.95761 11.2494 1.95761 7.78583 2.35861 4.35731C2.51272 3.03963 3.57821 1.99002 4.90832 1.84136Z" fill="white"/>
</svg>
