<svg width="134" height="26" viewBox="0 0 134 26" fill="none" xmlns="http://www.w3.org/2000/svg">
<g opacity="0.5">
<g clip-path="url(#clip0_5024_4146)">
<path d="M57.7192 20.2607V25.2929H57.1577V20.2607H57.7192Z" fill="white"/>
<path d="M61.7275 20.7365V25.2929H61.1697V20.7365H59.6638V20.2607H63.2334V20.7365H61.7275Z" fill="white"/>
<path d="M64.0736 25.2929L65.6204 20.2607H66.4496L67.9964 25.2929H67.4126L66.9404 23.7171H65.1333L64.6574 25.2929H64.0736ZM65.2709 23.2451H66.7991L66.0741 20.6435H65.996L65.2709 23.2451Z" fill="white"/>
<path d="M69.8259 25.2929V20.2607H70.3874V24.8209H72.7708V25.2929H69.8259Z" fill="white"/>
<path d="M74.8791 23.1745L73.3323 20.2607H73.9458L75.1579 22.5687L76.3701 20.2607H76.9836L75.4368 23.1745V25.2929H74.8791V23.1745Z" fill="white"/>
<path d="M60.2476 15.0463H61.9543V8.4197H73.0608V15.0463H74.7712V0.916016H73.0608V6.90335H61.9543V0.916016H60.2476V15.0463Z" fill="white"/>
<path d="M75.2583 15.5367H72.57V8.91014H62.445V15.5367H59.7567V0.425293H62.445V6.41263H72.57V0.425293H75.2583V15.5367ZM73.5516 14.5556H74.2767V1.40645H73.5516V7.3938H61.4634V1.40645H60.7198V14.5556H61.4634V7.92897H73.5516V14.5556Z" fill="white"/>
<path fill-rule="evenodd" clip-rule="evenodd" d="M91.8716 2.52882H97.8804C100.323 2.52882 102.153 2.87818 102.153 4.91856C102.153 6.95893 100.323 7.33059 97.8804 7.33059H91.8716V2.52882ZM90.1984 15.0387H91.8902V8.83207H97.397L101.904 15.0387H104.001L99.3826 8.7949C101.074 8.71685 103.789 7.86949 103.789 4.94086C103.789 1.51049 100.517 1.02734 98.2819 1.02734H90.1984V15.0387Z" fill="white"/>
<path d="M104.956 15.5259H101.632L97.1293 9.32299H92.3624V15.5259H89.689V0.537109H98.2634C103.22 0.537109 104.261 2.93056 104.261 4.94121C104.261 7.5911 102.268 8.84357 100.264 9.1892L104.956 15.5259ZM102.134 14.5485H103.008L98.4195 8.34555L99.3417 8.30467C99.9998 8.27493 103.279 7.97018 103.279 4.95978C103.279 2.65553 101.64 1.53686 98.2634 1.53686H90.6706V14.567H91.3845V8.36041H97.635L102.134 14.5485ZM97.8804 7.8178H91.3845V2.03859H97.8804C99.4272 2.03859 102.644 2.03859 102.644 4.91891C102.644 7.79922 99.4272 7.8178 97.8804 7.8178ZM92.3624 6.84035H97.8804C100.673 6.84035 101.662 6.33491 101.662 4.91891C101.662 3.50291 100.673 3.01975 97.8804 3.01975H92.3624V6.84035Z" fill="white"/>
<path d="M0.490845 15.0872H2.18639V10.501L6.16868 7.37912L13.0624 15.0872H15.3529L7.49612 6.35707L14.3341 1.07959H11.735L2.18639 8.53496V1.07959H0.490845V15.0872Z" fill="white"/>
<path d="M16.4535 15.578H12.8579L6.10917 8.04825L2.67346 10.739V15.5705H0V0.589158H2.67346V7.52793L11.5639 0.585449H15.7693L8.21744 6.41297L16.4535 15.578ZM13.2818 14.5894H14.2522L6.77845 6.28661L12.8951 1.58148H11.9023L1.70298 9.5423V1.58148H0.992785V14.5894H1.70298V10.2633L6.2393 6.71029L13.2818 14.5894Z" fill="white"/>
<path d="M43.188 14.9313H44.8835V8.36043V6.85523V0.919922H43.188V14.9313Z" fill="white"/>
<path d="M30.4231 14.9313H32.1149V8.36043V6.85523V0.919922H30.4231V14.9313Z" fill="white"/>
<path d="M30.438 0.919922V2.61838H37.0045H38.5067H44.4337V0.919922H30.438Z" fill="white"/>
<path d="M43.1881 2.61838H32.115V13.2477H43.1881V2.61838ZM30.438 0.919922H44.8836V14.9313L38.5142 14.961H30.438L30.4194 0.9385L30.438 0.919922Z" fill="white"/>
<path d="M38.514 15.4329H29.962L29.9434 0.429199H45.3892V15.4217L38.514 15.4329ZM30.9361 14.4517H44.4001V1.41037H30.9138L30.9361 14.4517ZM43.6862 13.7381H31.624V2.12766H43.6787L43.6862 13.7381ZM32.6131 12.757H42.7046V3.09396H32.6057L32.6131 12.757Z" fill="white"/>
<path d="M35.283 5.56152H40.0201V10.3038H35.283V5.56152Z" fill="white"/>
<path d="M131.817 14.8829H133.509V8.30837V6.80689V0.871582H131.817V14.8829Z" fill="white"/>
<path d="M119.049 14.8829H120.744V8.30837V6.80689V0.871582H119.049V14.8829Z" fill="white"/>
<path d="M119.517 13.2993V14.9941H126.091H127.593H133.531V13.2993H119.517Z" fill="white"/>
<path d="M30.5049 13.2993V14.9941H37.0788H38.5847H44.5229V13.2993H30.5049Z" fill="white"/>
<path d="M119.067 0.871582V2.56632H125.63H127.132H133.063V0.871582H119.067Z" fill="white"/>
<path d="M125.63 15.3808H118.565L118.547 0.380859H134V15.3697L125.63 15.3808ZM119.573 14.4034H133.037V1.36203H119.539L119.573 14.4034ZM132.327 13.6861H120.253V2.0756H132.308L132.327 13.6861ZM121.25 12.7049H131.345V3.06792H121.231L121.25 12.7049Z" fill="white"/>
<path d="M123.912 5.50977H128.649V10.2521H123.912V5.50977Z" fill="white"/>
</g>
</g>
<defs>
<clipPath id="clip0_5024_4146">
<rect width="134" height="24.9119" fill="white" transform="translate(0 0.380859)"/>
</clipPath>
</defs>
</svg>
